<?xml version="1.0" standalone="no"?>
<!DOCTYPE svg PUBLIC "-//W3C//DTD SVG 20010904//EN"
 "http://www.w3.org/TR/2001/REC-SVG-20010904/DTD/svg10.dtd">
<svg version="1.0" xmlns="http://www.w3.org/2000/svg"
 width="512.000000pt" height="512.000000pt" viewBox="0 0 512.000000 512.000000"
 preserveAspectRatio="xMidYMid meet">
<metadata>
Created by potrace 1.11, written by Peter Selinger 2001-2013
</metadata>
<g transform="translate(0.000000,512.000000) scale(0.100000,-0.100000)"
fill="#000000" stroke="none">
<path d="M2408 5114 c-2 -1 -37 -5 -78 -8 -68 -6 -228 -29 -275 -40 -224 -50
-340 -87 -515 -163 -111 -48 -237 -113 -282 -144 -14 -11 -29 -19 -31 -19 -10
0 -170 -112 -256 -178 -102 -79 -295 -269 -383 -377 -285 -349 -473 -761 -548
-1203 -45 -263 -45 -593 1 -842 6 -30 12 -67 14 -81 2 -14 11 -55 20 -90 10
-35 19 -75 21 -88 3 -13 10 -34 16 -45 6 -12 10 -21 8 -21 -10 0 66 -205 116
-314 24 -51 44 -95 44 -96 0 -2 25 -48 57 -102 259 -451 625 -798 1083 -1028
195 -98 457 -189 635 -220 17 -2 39 -7 50 -9 219 -43 555 -52 773 -21 97 13
123 18 192 32 41 8 86 17 100 20 27 5 110 30 230 70 95 31 241 94 350 151 73
39 274 163 320 199 360 280 608 577 793 954 31 64 57 121 57 126 0 5 8 27 19
49 24 51 92 262 101 316 1 4 8 36 17 70 8 35 16 72 18 83 3 22 17 111 21 135
9 59 18 226 18 335 0 127 -11 322 -19 336 -3 3 -7 26 -9 50 -4 35 -27 155 -51
259 -10 48 -82 255 -117 338 -86 207 -221 434 -364 612 -105 131 -368 389
-432 424 -10 5 -19 12 -22 16 -25 34 -294 198 -433 264 -144 69 -338 142 -427
161 -8 2 -15 4 -15 5 0 2 2 1 -110 25 -89 20 -94 20 -185 34 -134 20 -189 24
-352 26 -93 1 -169 1 -170 -1z"/>
</g>
</svg>
